<svg xmlns="http://www.w3.org/2000/svg" width="148" height="52" viewBox="0 0 148 52" fill="none">
  <g transform="translate(45 -16.5)">
    <path d="M10.1858 51.8848H10.7932C10.6267 51.8942 10.4591 51.9004 10.2903 51.9004C5.30301 51.9004 1.26001 47.7318 1.26001 42.5898C1.26004 37.4839 5.24668 33.339 10.1858 33.2812V51.8848Z" fill="white"/>
    <path d="M41.2033 45.6116C37.9814 43.5031 37.1105 39.2296 39.2579 36.0664C41.4054 32.9031 45.7581 32.048 48.98 34.1564L51.5468 35.8361C51.5468 35.8361 50.98 36.1663 50.5593 36.8546C50.3262 37.2361 49.8486 38.8314 49.8486 38.8314C49.8486 38.8314 50.5593 38.5048 51.7569 39.2885C54.9787 41.3969 55.8497 45.6704 53.7023 48.8336C51.5548 51.9969 47.2021 52.852 43.9802 50.7435L41.4134 49.0639C41.4134 49.0639 42.1225 48.4537 42.4268 48.0055C42.731 47.5574 43.2515 46.2087 43.2515 46.2087L41.2033 45.6116Z" fill="white"/>
    <path d="M1.47254 43.4C-1.32511 44.7914 0.557997 48.6697 1.4726 47.0177C3.24216 43.8214 14.6538 43.7857 26.0654 45.603C37.477 47.4204 56.84 39.1602 56.84 39.1602C56.84 39.1602 40.5692 43.0459 28.2741 40.7603C15.979 38.4747 4.56339 41.8628 1.47254 43.4Z" fill="url(#paint0_linear_white)"/>
    <path d="M19.5029 42.2295C19.5029 42.2295 19.6439 49.1459 19.6439 50.9825C18.9313 49.7159 17.67 48.5703 17.67 48.5703C16.8927 49.4569 14.3301 51.8898 11.2207 51.8898V33.2803C17.1156 33.6498 19.6335 37.6021 19.3096 41.2755C19.3096 41.2755 16.9399 42.5052 15.566 42.7229C14.1921 42.9406 12.0304 42.5052 12.0304 42.5052C13.5813 44.6417 18.4664 44.5728 19.5029 42.2295Z" fill="white"/>
    <path d="M36.215 49.1734C34.8866 50.5256 33.1815 51.4286 31.3313 51.7597C29.4811 52.0907 27.5756 51.8339 25.8738 51.0238C24.1721 50.2138 22.7566 48.8901 21.8199 47.2325C20.8832 45.5749 20.4706 43.6639 20.6383 41.7593C20.806 39.8547 21.5458 38.0488 22.7571 36.5871C23.9684 35.1255 25.5925 34.079 27.4086 33.5899C29.2247 33.1008 31.1447 33.1929 32.9076 33.8535C34.6705 34.5142 36.1908 35.7114 37.2618 37.2825C37.2618 37.2825 32.0518 40.1029 29.7478 42.5903C32.9076 44.438 36.215 49.1734 36.215 49.1734Z" fill="white"/>
  </g>
  <defs>
    <linearGradient id="paint0_linear_white" x1="-0.0708912" y1="45.9086" x2="55.9858" y2="37.9783" gradientUnits="userSpaceOnUse">
      <stop stop-color="#FFFFFF"/>
      <stop offset="0.355769" stop-color="#FFFFFF" stop-opacity="0.9"/>
      <stop offset="1" stop-color="#FFFFFF"/>
    </linearGradient>
  </defs>
</svg>