<svg xmlns="http://www.w3.org/2000/svg" width="375" height="244" viewBox="0 0 375 244" fill="none">
  <defs>
    <linearGradient id="orangeGradient" x1="0%" y1="0%" x2="100%" y2="100%">
      <stop offset="0%" stop-color="#FF6F22" />
      <stop offset="50%" stop-color="#EE4A08" />
      <stop offset="100%" stop-color="#FF6F22" />
    </linearGradient>
    <linearGradient id="logoGradient" x1="-0.0708912" y1="12.9086" x2="55.9858" y2="4.9783" gradientUnits="userSpaceOnUse">
      <stop stop-color="#FFFFFF"/>
      <stop offset="0.355769" stop-color="#FFFFFF"/>
      <stop offset="1" stop-color="#FFFFFF"/>
    </linearGradient>
    <filter id="blur">
      <feGaussianBlur in="SourceGraphic" stdDeviation="2"/>
    </filter>
  </defs>
  
  <!-- 주황색 배경 -->
  <rect width="375" height="244" fill="url(#orangeGradient)" />
  
  <!-- 큰 원형 요소 (왼쪽 상단) -->
  <ellipse cx="151" cy="121" rx="152" ry="196" fill="rgba(255, 255, 255, 0.1)" />
  
  <!-- 작은 원형 요소 (오른쪽 상단) -->
  <ellipse cx="316" cy="20" rx="99" ry="99" fill="rgba(255, 255, 255, 0.08)" />
  
  <!-- 큰 원형 요소 (오른쪽 하단) -->
  <ellipse cx="293" cy="262" rx="152" ry="152" fill="rgba(255, 255, 255, 0.1)" />
  
  <!-- 벡터 요소 1 (위쪽 커브) -->
  <path d="M-35 54 L392 54 L392 267 L-35 267 Z" fill="rgba(255, 255, 255, 0.05)" transform="rotate(180 178.5 160.5)" />
  
  <!-- 벡터 요소 2 (아래쪽 커브) -->
  <path d="M-79 150 L348 150 L348 332 L-79 332 Z" fill="rgba(255, 255, 255, 0.05)" />
  
  <!-- 중앙 하얀색 로고 (기존 logo.svg 기반) -->
  <g transform="translate(187.5, 122) translate(-28.5, -9.5) scale(2.6)">
    <!-- G -->
    <path d="M10.1858 18.8848H10.7932C10.6267 18.8942 10.4591 18.9004 10.2903 18.9004C5.30301 18.9004 1.26001 14.7318 1.26001 9.58984C1.26004 4.48387 5.24668 0.338989 10.1858 0.28125V18.8848Z" fill="white"/>
    <!-- C -->
    <path d="M41.2033 12.6116C37.9814 10.5031 37.1105 6.22964 39.2579 3.06638C41.4054 -0.0968791 45.7581 -0.951984 48.98 1.15641L51.5468 2.83611C51.5468 2.83611 50.98 3.1663 50.5593 3.85463C50.3262 4.2361 49.8486 5.83144 49.8486 5.83144C49.8486 5.83144 50.5593 5.5048 51.7569 6.28846C54.9787 8.39686 55.8497 12.6704 53.7023 15.8336C51.5548 18.9969 47.2021 19.852 43.9802 17.7435L41.4134 16.0639C41.4134 16.0639 42.1225 15.4537 42.4268 15.0055C42.731 14.5574 43.2515 13.2087 43.2515 13.2087L41.2033 12.6116Z" fill="white"/>
    <!-- S (그라데이션) -->
    <path d="M1.47254 10.4C-1.32511 11.7914 0.557997 15.6697 1.4726 14.0177C3.24216 10.8214 14.6538 10.7857 26.0654 12.603C37.477 14.4204 56.84 6.16016 56.84 6.16016C56.84 6.16016 40.5692 10.0459 28.2741 7.76028C15.979 5.47468 4.56339 8.86278 1.47254 10.4Z" fill="white"/>
    <!-- 추가 요소 1 -->
    <path d="M19.5029 9.22947C19.5029 9.22947 19.6439 16.1459 19.6439 17.9825C18.9313 16.7159 17.67 15.5703 17.67 15.5703C16.8927 16.4569 14.3301 18.8898 11.2207 18.8898V0.280273C17.1156 0.64976 19.6335 4.60212 19.3096 8.27547C19.3096 8.27547 16.9399 9.50516 15.566 9.72287C14.1921 9.94059 12.0304 9.50516 12.0304 9.50516C13.5813 11.6417 18.4664 11.5728 19.5029 9.22947Z" fill="white"/>
    <!-- 추가 요소 2 -->
    <path d="M36.215 16.1734C34.8866 17.5256 33.1815 18.4286 31.3313 18.7597C29.4811 19.0907 27.5756 18.8339 25.8738 18.0238C24.1721 17.2138 22.7566 15.8901 21.8199 14.2325C20.8832 12.5749 20.4706 10.6639 20.6383 8.7593C20.806 6.85466 21.5458 5.04878 22.7571 3.58714C23.9684 2.12552 25.5925 1.07902 27.4086 0.589931C29.2247 0.100842 31.1447 0.192884 32.9076 0.853542C34.6705 1.5142 36.1908 2.71143 37.2618 4.28248C37.2618 4.28248 32.0518 7.10286 29.7478 9.59027C32.9076 11.438 36.215 16.1734 36.215 16.1734Z" fill="white"/>
  </g>
</svg>
